<svg height="512" viewBox="0 0 24 24" width="512" xmlns="http://www.w3.org/2000/svg"><g fill-rule="evenodd"><path d="m5 .25c-1.51878 0-2.75 1.23122-2.75 2.75s1.23122 2.75 2.75 2.75 2.75-1.23122 2.75-2.75-1.23122-2.75-2.75-2.75z" fill="#fff"/><path d="m3 6.25c-1.51878 0-2.75 1.23122-2.75 2.75v5.4706c0 .9665.7835 1.75 1.75 1.75h.25v5.7794c0 .9665.7835 1.75 1.75 1.75h2c.9665 0 1.75-.7835 1.75-1.75v-5.7794h.25c.9665 0 1.75-.7835 1.75-1.75v-5.4706c0-1.51878-1.23122-2.75-2.75-2.75z" fill="#fff"/><path d="m17 2.25c-2.8995 0-5.25 2.35051-5.25 5.25 0 2.8995 2.3505 5.25 5.25 5.25s5.25-2.3505 5.25-5.25c0-2.89949-2.3505-5.25-5.25-5.25zm-6.75 5.25c0-3.72792 3.0221-6.75 6.75-6.75s6.75 3.02208 6.75 6.75c0 3.7279-3.0221 6.75-6.75 6.75s-6.75-3.0221-6.75-6.75z" fill="#fff"/><path d="m20.5303 4.96967c.2929.29289.2929.76777 0 1.06066l-4 3.99997c-.2929.2929-.7677.2929-1.0606 0l-2-1.99997c-.2929-.29289-.2929-.76777 0-1.06066s.7677-.29289 1.0606 0l1.4697 1.46967 3.4697-3.46967c.2929-.29289.7677-.29289 1.0606 0z" fill="#fff"/></g></svg>