<svg id="svg6995" height="512" viewBox="0 0 16.933333 16.933334" width="512" xmlns="http://www.w3.org/2000/svg" xmlns:svg="http://www.w3.org/2000/svg"><g id="layer1" transform="translate(0 -280.067)"><path id="path9182" d="m6.8559136 281.09862c-.334415-.00027-.670235.0395-.990637.11524l-2.160075.51056v4.14497c.369216.15649.822148.28422 1.322399.28422h2.380734c.581739 0 1.058333-.47711 1.058333-1.05885 0-.58175-.476594-1.05834-1.058333-1.05834h-2.64635v-.26613c0-.72681.599237-1.3224 1.324467-1.3224h3.839557l-1.041278-.74363c-.542862-.38775-1.150284-.54683-1.695503-.59169-.110543-.009-.221843-.0138-.333314-.0139zm-6.07611544.0274c-.1480071.0136-.2507647.12752-.2506308.26355v4.76405c.0005821.14531.1182367.26296.2635499.26354h2.11718434c.14632.0008.265549-.11722.266134-.26354v-4.76405c-.000529-.14633-.119814-.2644-.266134-.26355zm5.30665344 1.85156c-.3425 0-.635669.22267-.746209.52917h2.068092c.465129 0 .885065.20577 1.176673.52916h4.6436444c.146169-.00052.2651.11738.265616.26356 0 .29537.234307.52916.529685.52916.146169.00053.26411.11996.263549.26614v2.11511c.000529.14617-.11738.2651-.263549.26562-.295378 0-.529685.23379-.529685.52916-.00053.14618-.119447.26412-.265616.26356h-5.8203174c-.146169.00053-.2651-.11738-.265618-.26356 0-.29538-.231722-.52916-.527098-.52916-.146934.00053-.266184-.11868-.265618-.26562v-.52761h-1.058849v1.85156c0 .43516.36014.79324.7953.79324h8.4666674c.435161 0 .792716-.35808.792716-.79324v-4.76353c0-.43516-.357555-.79272-.792716-.79272zm4.2323004 2.11719c-.5813704 0-1.0588504.47489-1.0588504 1.05626-.000003.58137.47748 1.05885 1.0588504 1.05885.581369 0 1.058333-.47748 1.058333-1.05885s-.476967-1.05626-1.058333-1.05626zm3.705201 5.55418a.26460982.26460982 0 0 0 -.266134.26613v4.76147a.26460982.26460982 0 0 0 .266134.26561h2.115116a.26460982.26460982 0 0 0 .265615-.26561v-4.76147a.26460982.26460982 0 0 0 -.265615-.26613zm-5.0276024.26613c-.553781 0-1.051097.43101-1.051097.97617 0 .54695.396568 1.14102 1.051097 1.14102h2.3807344c.384379-.0345.384379.56162 0 .52709h-2.3807344c-.94927 0-1.716863-.85518-1.569414-1.8128l-2.467549-.68885c-.528211-.1475-1.079137-.0928-1.384927.41186-.30158.49769-.100698 1.13343.376719 1.43919l3.838009 2.45721c1.084739.77105 2.4251924.63349 3.0137714.48628l2.425692-.52658v-4.12688c-.369157-.15602-.821843-.28371-1.321884-.28371z" font-variant-ligatures="normal" font-variant-position="normal" font-variant-caps="normal" font-variant-numeric="normal" font-variant-alternates="normal" font-feature-settings="normal" text-indent="0" text-align="start" text-decoration-line="none" text-decoration-style="solid" text-decoration-color="rgb(0,0,0)" text-transform="none" text-orientation="mixed" white-space="normal" shape-padding="0" isolation="auto" mix-blend-mode="normal" solid-color="rgb(0,0,0)" solid-opacity="1" vector-effect="none"/></g></svg>