<svg id="bold" height="512" viewBox="0 0 24 24" width="512" xmlns="http://www.w3.org/2000/svg"><path d="m23.899 5.973-1.5-2.598c-.1-.172-.263-.298-.455-.35-.194-.051-.396-.025-.569.076l-2.598 1.5c-.263.151-.408.447-.368.748.039.3.256.548.549.626l.93.249c-4.462 11.61-18.271 11.775-18.888 11.776-.552 0-1 .448-1 1 .001.552.447 1 .999 1 .181 0 15.932-.162 20.826-13.257l1.23.33c.064.017.13.025.194.025.229 0 .451-.105.595-.293.185-.241.207-.569.055-.832z" fill="#fff"/><path d="m22 24c-.553 0-1-.448-1-1v-12c0-.552.447-1 1-1s1 .448 1 1v12c0 .552-.447 1-1 1z" fill="#fff"/><path d="m16 24c-.553 0-1-.448-1-1v-5c0-.552.447-1 1-1s1 .448 1 1v5c0 .552-.447 1-1 1z" fill="#fff"/><path d="m10 24c-.553 0-1-.448-1-1v-2c0-.552.447-1 1-1s1 .448 1 1v2c0 .552-.447 1-1 1z" fill="#fff"/><path d="m4 24c-.553 0-1-.448-1-1v-1c0-.552.447-1 1-1s1 .448 1 1v1c0 .552-.447 1-1 1z" fill="#fff"/><path d="m11.491 1.826-5.25-1.786c-.156-.054-.326-.054-.482 0l-5.25 1.786c-.305.103-.509.389-.509.71v4.018c0 4.904 5.474 7.288 5.707 7.387.188.079.398.079.586 0 .233-.099 5.707-2.483 5.707-7.387v-4.018c0-.321-.204-.607-.509-.71zm-2.205 3.792-2.75 3.5c-.35.447-1.006.512-1.436.142l-1.75-1.5c-.42-.36-.469-.991-.109-1.411.36-.419.991-.467 1.409-.108l.958.821 2.105-2.679c.341-.434.969-.511 1.404-.168.435.34.511.969.169 1.403z" fill="#fff"/></svg>