<svg id="Layer_1" height="512" viewBox="0 0 32 32" width="512" xmlns="http://www.w3.org/2000/svg" data-name="Layer 1"><path d="m18.59 11.73h1.21a.75.75 0 1 1 0 1.51h-2.8a1.07 1.07 0 0 0 0 2.13h1.12v.63a1.07 1.07 0 1 0 2.13 0v-.67a2.88 2.88 0 0 0 -.46-5.73h-1.2a.75.75 0 1 1 0-1.51h2.79a1.07 1.07 0 1 0 0-2.13h-1.11v-.63a1.07 1.07 0 0 0 -2.13 0v.67a2.88 2.88 0 0 0 .46 5.73z"/><path d="m31.06.94a3.22 3.22 0 0 0 -2.26-.94h-19.2a3.22 3.22 0 0 0 -2.26.94 3.18 3.18 0 0 0 -.94 2.26v13.87h-3.2a3.2 3.2 0 0 0 -3.2 3.19v7.47a4.27 4.27 0 0 0 4.27 4.27h22.4a5.34 5.34 0 0 0 5.33-5.33v-23.47a3.18 3.18 0 0 0 -.94-2.26zm-28.93 26.79v-7.47a1.06 1.06 0 0 1 1.07-1.06h3.2v8.53a2.13 2.13 0 1 1 -4.27 0zm27.73-1.07a3.2 3.2 0 0 1 -3.2 3.2h-18.72a4.22 4.22 0 0 0 .59-2.13v-24.53a1.07 1.07 0 0 1 1.07-1.07h19.2a1.07 1.07 0 0 1 1.07 1.07z"/><path d="m24.53 20.27h-10.66a1.07 1.07 0 1 0 0 2.13h10.66a1.07 1.07 0 1 0 0-2.13z"/><path d="m24.53 25.6h-10.66a1.07 1.07 0 1 0 0 2.13h10.66a1.07 1.07 0 1 0 0-2.13z"/></svg>