<?xml version="1.0" encoding="iso-8859-1"?>
<!-- Generator: Adobe Illustrator 16.0.0, SVG Export Plug-In . SVG Version: 6.00 Build 0)  -->
<!DOCTYPE svg PUBLIC "-//W3C//DTD SVG 1.1//EN" "http://www.w3.org/Graphics/SVG/1.1/DTD/svg11.dtd">
<svg version="1.1" id="Capa_1" xmlns="http://www.w3.org/2000/svg" xmlns:xlink="http://www.w3.org/1999/xlink" x="0px" y="0px"
	 width="469.483px" height="469.484px" viewBox="0 0 469.483 469.484" style="enable-background:new 0 0 469.483 469.484;"
	 xml:space="preserve">
<g>
	<g>
		<path d="M94.497,283.208c-25.8,0-46.715,20.916-46.715,46.716s20.915,46.716,46.715,46.716c25.801,0,46.716-20.916,46.716-46.716
			S120.298,283.208,94.497,283.208z M94.497,349.639c-10.871,0-19.715-8.844-19.715-19.715s8.844-19.716,19.715-19.716
			c10.871,0,19.716,8.845,19.716,19.716S105.368,349.639,94.497,349.639z"/>
		<path d="M374.983,283.208c-25.801,0-46.716,20.916-46.716,46.716s20.915,46.716,46.716,46.716c25.8,0,46.715-20.916,46.715-46.716
			S400.783,283.208,374.983,283.208z M374.983,349.639c-10.871,0-19.716-8.844-19.716-19.715s8.845-19.716,19.716-19.716
			s19.715,8.845,19.715,19.716S385.854,349.639,374.983,349.639z"/>
		<path d="M460.759,210.405l-41.021-18.904l-45.109-90.358l-13.42-8.3H15l-15,15v215.496l15,15h18.666
			c-0.57-3.365-0.883-6.816-0.883-10.34c0-34.03,27.685-61.715,61.715-61.715c34.03,0,61.716,27.686,61.716,61.715
			c0,3.523-0.313,6.976-0.883,10.34h158.821c-0.57-3.365-0.883-6.816-0.883-10.34c0-34.03,27.686-61.715,61.716-61.715
			c34.029,0,61.715,27.686,61.715,61.715c0,3.523-0.312,6.976-0.883,10.34h18.666l15-15v-99.311L460.759,210.405z M111.49,202.825
			l-52.414,0.071v-62.715h52.414V202.825z M207.492,202.825l-52.414,0.071v-62.715h52.414V202.825z M254.078,202.898v-62.717h78.649
			l31.256,62.606L254.078,202.898z"/>
	</g>
</g>
<g>
</g>
<g>
</g>
<g>
</g>
<g>
</g>
<g>
</g>
<g>
</g>
<g>
</g>
<g>
</g>
<g>
</g>
<g>
</g>
<g>
</g>
<g>
</g>
<g>
</g>
<g>
</g>
<g>
</g>
</svg>
