<svg id="bold" height="512" viewBox="0 0 24 24" width="512" xmlns="http://www.w3.org/2000/svg"><path d="m17.002 22c0-1.103.897-2 2-2s2 .897 2 2-.897 2-2 2-2-.897-2-2z"/><path d="m3.002 22c0-1.103.897-2 2-2s2 .897 2 2-.897 2-2 2-2-.897-2-2z"/><path d="m2.159 23h1.402c.414 0 .75-.336.75-.75s-.336-.75-.75-.75h-1.402c-.103 0-.193-.062-.231-.156l-.408-1.011c-.05-.123.004-.268.119-.323 7.25-3.504 14.215-3.977 20.705-1.4.115.046.181.183.149.312l-.594 2.39c-.028.111-.128.189-.243.189h-1.328c-.414 0-.75.336-.75.75s.336.749.751.749h1.328c.805 0 1.503-.546 1.698-1.327l.594-2.391c.213-.856-.239-1.745-1.052-2.067-6.895-2.736-14.267-2.251-21.91 1.444-.826.397-1.203 1.38-.857 2.234l.405 1.01c.268.666.905 1.097 1.624 1.097z"/><path d="m6.342 17.36c0 .02.01.05.02.07l.44 1.1c.11.25.34.43.61.46l6.9.87c.12.01.23.02.35.02.82 0 1.59-.36 2.12-1.01l1.52-1.85c.08-.1.14-.23.16-.35-3.98-.8-8.02-.54-12.12.69z"/><path d="m23.491 1.826-5.25-1.786c-.156-.054-.326-.054-.482 0l-5.25 1.786c-.305.103-.509.389-.509.71v4.018c0 4.904 5.474 7.288 5.707 7.387.188.079.398.079.586 0 .233-.099 5.707-2.483 5.707-7.387v-4.018c0-.321-.204-.607-.509-.71zm-2.205 3.792-2.75 3.5c-.35.447-1.006.512-1.436.142l-1.75-1.5c-.42-.359-.469-.991-.108-1.41.359-.419.991-.467 1.409-.108l.958.821 2.105-2.679c.341-.434.969-.511 1.404-.168.434.339.51.968.168 1.402z"/><path d="m6.413 21.5h11.18v1.5h-11.18z"/></svg>