<svg id="bold" height="512" viewBox="0 0 24 24" width="512" xmlns="http://www.w3.org/2000/svg"><path d="m12 23.5c.552 0 1-.448 1-1v-16c0-.552-.448-1-1-1s-1 .448-1 1v16c0 .552.448 1 1 1z" fill="#fff"/><path d="m7 24h10c.552 0 1-.448 1-1s-.448-1-1-1h-10c-.552 0-1 .448-1 1s.448 1 1 1z" fill="#fff"/><path d="m10 5c0-1.103.897-2 2-2s2 .897 2 2-.897 2-2 2-2-.897-2-2z" fill="#fff"/><path d="m17 15.5v-.25c0-.414.336-.75.75-.75h5.5c.414 0 .75.336.75.75v.25c0 1.93-1.57 3.5-3.5 3.5s-3.5-1.57-3.5-3.5z" fill="#fff"/><path d="m18 16.25c.397 0 .772-.238.929-.629l1.571-3.929 1.571 3.929c.206.512.787.761 1.3.557.513-.206.762-.787.557-1.3l-2.5-6.25c-.152-.379-.519-.628-.928-.628s-.776.249-.929.628l-2.5 6.25c-.205.513.044 1.095.557 1.3.122.049.248.072.372.072z" fill="#fff"/><path d="m0 7.5v-.25c0-.414.336-.75.75-.75h5.5c.414 0 .75.336.75.75v.25c0 1.93-1.57 3.5-3.5 3.5s-3.5-1.57-3.5-3.5z" fill="#fff"/><path d="m1 8.25c.397 0 .772-.238.929-.629l1.571-3.929 1.571 3.929c.206.512.787.761 1.3.557.513-.206.762-.787.557-1.3l-2.5-6.25c-.152-.379-.519-.628-.928-.628s-.776.249-.929.628l-2.5 6.25c-.205.513.044 1.095.557 1.3.122.049.248.072.372.072z" fill="#fff"/><path d="m11-4.394h2v18.788h-2z" transform="matrix(.426 -.905 .905 .426 2.366 13.729)" fill="#fff"/></svg>