<svg id="bold" height="512" viewBox="0 0 24 24" width="512" xmlns="http://www.w3.org/2000/svg"><path d="m21.25 21h-7.5c-.352 0-.656-.244-.732-.587l-1-4.5c-.049-.222.004-.455.147-.632.142-.178.357-.281.585-.281h9.124l.651-2.443c.106-.4.517-.639.918-.531.4.106.638.518.531.918l-2 7.5c-.087.328-.384.556-.724.556z" fill="#fff"/><circle cx="16" cy="23" r="1" fill="#fff"/><circle cx="20" cy="23" r="1" fill="#fff"/><path d="m23 8h-.06l-.72-5.4c-.2-1.48-1.47-2.6-2.97-2.6h-14.5c-1.5 0-2.77 1.12-2.97 2.6l-.72 5.4h-.06c-.55 0-1 .45-1 1s.45 1 1 1h1v9c0 1.65 1.35 3 3 3h6.64c-.28-.32-.48-.71-.57-1.15l-.19-.85h-5.88c-.55 0-1-.45-1-1v-9h16v3h.34l.25-.96c.19-.71.65-1.3 1.28-1.67.04-.02.09-.05.13-.06v-.31h1c.55 0 1-.45 1-1s-.45-1-1-1zm-17.44 0h-2.48l.68-5.13c.07-.5.49-.87.99-.87h1.61zm5.44 0h-3.42l.8-6h2.62zm2 0v-6h2.62l.8 6zm5.44 0-.8-6h1.61c.5 0 .92.37.99.87l.68 5.13z" fill="#fff"/><path d="m10.61 14.03c-.53.65-.73 1.49-.54 2.32l.28 1.25c-.3.25-.68.4-1.1.4h-1.5c-.96 0-1.75-.79-1.75-1.75v-1.5c0-.96.79-1.75 1.75-1.75h1.5c.64 0 1.2.35 1.5.87-.05.05-.09.1-.14.16z" fill="#fff"/></svg>