<?xml version="1.0"?>
<svg xmlns="http://www.w3.org/2000/svg" viewBox="0 0 512 512" width="512" height="512"><g id="outline_create" data-name="outline create"><path d="M324.529,88,307.812,60.137A25.128,25.128,0,0,0,286.375,48H206.228a19.1,19.1,0,0,0-16.292,9.224L171.47,88H134.183a16.947,16.947,0,0,0-16.769,14.206L112.22,133.37A16,16,0,0,0,128,152h25.374a24,24,0,0,0,45.248,0H329.376a24,24,0,0,0,45.248,0H400a8,8,0,0,0,8-8V120a32.036,32.036,0,0,0-32-32ZM184,121.376V104h56v32H198.624A24.114,24.114,0,0,0,184,121.376ZM256,104h56v32H256Zm30.375-40a9.045,9.045,0,0,1,7.717,4.369L305.871,88H256V64Zm-82.719,1.456A3.014,3.014,0,0,1,206.228,64H240V88H190.13Zm-70.46,39.38a1,1,0,0,1,.987-.836H168v17.376A24.111,24.111,0,0,0,153.376,136H128ZM176,152a8,8,0,1,1,8-8A8.009,8.009,0,0,1,176,152Zm176,0a8,8,0,1,1,8-8A8.009,8.009,0,0,1,352,152Zm40-32v16H374.624a24,24,0,0,0-45.248,0H328V104h48A16.019,16.019,0,0,1,392,120Z"/><path d="M398.513,373.626a30.484,30.484,0,0,0-8.856-19.283l-96-96a8,8,0,0,0-11.314,0l-8,8a37.325,37.325,0,0,1-46.418,5.046l31.646-31.646a37.1,37.1,0,0,1,46.687-4.623l41.3,27.536a8,8,0,0,0,6.579,1.052l144-40-4.282-15.416-140.47,39.019-38.256-25.5a53.161,53.161,0,0,0-62.989,3.115A38.169,38.169,0,0,0,208.335,220l-49.144,27.3L18.53,200.411l-5.06,15.178,144,48a8,8,0,0,0,6.415-.6l52.22-29.011a22.1,22.1,0,0,1,24.481,2.118l-30.243,30.243a8,8,0,0,0,0,11.314,53.316,53.316,0,0,0,75.314,0L288,275.313l90.343,90.344a14.627,14.627,0,0,1-20.686,20.686l-8-8-32-32-8-8-11.314,11.314,8,8,32,32a14.627,14.627,0,0,1-20.686,20.686l-24-24-11.314,11.314,24,24a14.62,14.62,0,0,1-19.885,21.41,30.582,30.582,0,0,0-31.865-33.646c.021-.472.034-.946.034-1.421A30.625,30.625,0,0,0,224,377.373c-.471,0-.94.013-1.407.034.021-.468.034-.936.034-1.407a30.628,30.628,0,0,0-52.284-21.657l-24,24a30.937,30.937,0,0,0-3.912,4.785L18.386,344.364l-4.772,15.272L137.42,398.325c-.029.556-.047,1.114-.047,1.675A30.625,30.625,0,0,0,168,430.627c.471,0,.94-.013,1.407-.034-.021.468-.034.936-.034,1.407a30.646,30.646,0,0,0,40.434,29.022,30.625,30.625,0,0,0,51.85,16.635l16-16a30.8,30.8,0,0,0,2.818-3.253A30.633,30.633,0,0,0,326.63,432c0-.475-.013-.948-.035-1.42.468.021.937.033,1.4.033a30.6,30.6,0,0,0,30.216-25.6,30.62,30.62,0,0,0,36.129-13.389l.008.023,104-32-4.706-15.292ZM168,414.627a14.627,14.627,0,0,1-10.343-24.97l24-24a14.627,14.627,0,0,1,20.686,20.686l-24,24A14.529,14.529,0,0,1,168,414.627Zm21.657,27.716a14.628,14.628,0,0,1,0-20.686l24-24a14.627,14.627,0,0,1,20.686,20.686l-16,16-8,8a14.628,14.628,0,0,1-20.686,0Zm76.686,8-16,16a14.627,14.627,0,0,1-20.686-20.686l16-16a14.627,14.627,0,0,1,20.686,20.686Z"/></g></svg>
