<?xml version="1.0" encoding="UTF-8"?>
<svg xmlns="http://www.w3.org/2000/svg" viewBox="0 0 60 60" width="512" height="512"><g id="Icons"><path d="M57.927,39.508A1.991,1.991,0,0,0,58,39V36.722A1.993,1.993,0,0,0,59,35V32a3.01,3.01,0,0,0-1.2-2.4L54.92,27.44l-.655-3.933A2.991,2.991,0,0,0,51.306,21H38.694a3.006,3.006,0,0,0-.694.09v-1.8a2.993,2.993,0,0,0,2.8-5.213L22.85.617a3.1,3.1,0,0,0-3.7,0L1.2,14.081a2.987,2.987,0,0,0,2.8,5.2V38a3,3,0,0,0,3,3H38a2,2,0,0,0,2-2V37H50v2a2,2,0,0,0,2,2h.138l-6.866,5.747A4.2,4.2,0,0,0,41.836,45H31.647a.893.893,0,0,1-.575-.182A7.983,7.983,0,0,0,26,43a23.741,23.741,0,0,0-10.521,2.663A1.985,1.985,0,0,0,14,45H2a2,2,0,0,0-2,2V58a2,2,0,0,0,2,2H14a2,2,0,0,0,1.652-.875A96.762,96.762,0,0,0,30,60l13.03,0a4.882,4.882,0,0,0,3.344-1.459l12.481-12.7a4.006,4.006,0,0,0-.928-6.327ZM14,58H2V47H14ZM56.6,31.2a1,1,0,0,1,.4.8v3H33V32a1,1,0,0,1,.4-.8L36.333,29H53.667ZM38.694,23H51.306a1,1,0,0,1,.986.835L52.82,27H37.18l.528-3.165A1,1,0,0,1,38.694,23ZM2.212,17.091a1,1,0,0,1,.186-1.41L20.35,2.217a1.089,1.089,0,0,1,1.3,0L39.6,15.681a.995.995,0,0,1-1.188,1.6L21.593,4.883a1,1,0,0,0-1.186,0L3.585,17.277A.988.988,0,0,1,2.212,17.091ZM17,39V27h8V39Zm10,0V27a2,2,0,0,0-2-2H17a2,2,0,0,0-2,2V39H7a1,1,0,0,1-1-1V17.982L21,6.93,36,17.982V22.7a3.014,3.014,0,0,0-.265.8L35.08,27.44,32.2,29.6A3.014,3.014,0,0,0,31,32v3a1.993,1.993,0,0,0,1,1.722V39Zm11,0H34V37h4Zm14-2h4v2H52Zm5.428,7.434-12.479,12.7A2.873,2.873,0,0,1,43,58L30,58a96.5,96.5,0,0,1-14-.847v-9.52A22.217,22.217,0,0,1,26,45a5.9,5.9,0,0,1,3.8,1.359,2.9,2.9,0,0,0,1.849.64H41.836A2.114,2.114,0,0,1,44,48.9,2,2,0,0,1,42,51H31a1,1,0,0,0,0,2H42A3.993,3.993,0,0,0,46,48.8c0-.014,0-.027-.006-.041l8.7-7.284a2.014,2.014,0,0,1,2.841.253A2.042,2.042,0,0,1,57.428,44.434Z"/><path d="M48,31H42a1,1,0,0,0,0,2h6a1,1,0,0,0,0-2Z"/><path d="M37,31H36a1,1,0,0,0,0,2h1a1,1,0,0,0,0-2Z"/><path d="M53,31a1,1,0,0,0,0,2h1a1,1,0,0,0,0-2Z"/><path d="M24,13H18a2,2,0,0,0-2,2v6a2,2,0,0,0,2,2h6a2,2,0,0,0,2-2V15A2,2,0,0,0,24,13Zm-6,8V15h6v6Z"/></g></svg>
