<svg id="bold" height="512" viewBox="0 0 24 24" width="512" xmlns="http://www.w3.org/2000/svg"><path d="m21 3h-18c-1.65 0-3 1.35-3 3v12c0 1.65 1.35 3 3 3h6.76c-.29-.63-.5-1.3-.62-2h-6.14c-.55 0-1-.45-1-1v-12c0-.55.45-1 1-1h18c.55 0 1 .45 1 1v4.29c.76.47 1.43 1.06 2 1.73v-6.02c0-1.65-1.35-3-3-3z"/><path d="m7.25 8h-6c-.414 0-.75.336-.75.75v6.5c0 .414.336.75.75.75h6c1.517 0 2.75-1.233 2.75-2.75v-2.5c0-1.517-1.233-2.75-2.75-2.75zm-1.25 6c-1.105 0-2-.895-2-2s.895-2 2-2 2 .895 2 2-.895 2-2 2z"/><path d="m17.5 11c-3.584 0-6.5 2.916-6.5 6.5s2.916 6.5 6.5 6.5 6.5-2.916 6.5-6.5-2.916-6.5-6.5-6.5zm-.125 5.75h.25c1.034 0 1.875.841 1.875 1.875 0 .813-.524 1.501-1.25 1.76v.365c0 .414-.336.75-.75.75s-.75-.336-.75-.75v-.25h-.5c-.414 0-.75-.336-.75-.75s.336-.75.75-.75h1.375c.207 0 .375-.168.375-.375s-.168-.375-.375-.375h-.25c-1.034 0-1.875-.841-1.875-1.875 0-.813.524-1.501 1.25-1.76v-.365c0-.414.336-.75.75-.75s.75.336.75.75v.25h.5c.414 0 .75.336.75.75s-.336.75-.75.75h-1.375c-.207 0-.375.168-.375.375s.168.375.375.375z"/></svg>