<svg id="bold" height="512" viewBox="0 0 24 24" width="512" xmlns="http://www.w3.org/2000/svg"><path d="m17.5 24c-.157 0-.314-.049-.447-.148-.62-.461-6.053-4.602-6.053-8.114 0-2.061 1.683-3.738 3.75-3.738 1.063 0 2.054.446 2.75 1.194.696-.748 1.687-1.194 2.75-1.194 2.067 0 3.75 1.677 3.75 3.738 0 3.512-5.433 7.653-6.053 8.114-.133.099-.29.148-.447.148z"/><path d="m20.61 9.35-2.61-2.49v-5.11c0-.41-.34-.75-.75-.75h-3c-.41 0-.75.34-.75.75v.82l-2.48-2.36c-.29-.28-.75-.28-1.04 0l-9.57 9.12c-.26.23-.41.57-.41.92 0 .69.56 1.25 1.25 1.25h1.75v6.25c0 1.24 1.01 2.25 2.25 2.25h5.24c-.88-1.33-1.49-2.8-1.49-4.26 0-3.17 2.58-5.74 5.75-5.74.97 0 1.91.25 2.75.7.84-.45 1.78-.7 2.75-.7.25 0 .49.02.73.05-.04-.28-.18-.53-.37-.7z"/></svg>